<svg width="17" height="16" viewBox="0 0 17 16" fill="none" xmlns="http://www.w3.org/2000/svg">
<g clip-path="url(#clip0_22763_1028)">
<path d="M4.45566 10.8571C4.45566 10.5417 4.31959 10.2723 4.04745 10.0491C3.77531 9.82589 3.44692 9.71429 3.0623 9.71429C2.67767 9.71429 2.34929 9.82589 2.07715 10.0491C1.80501 10.2723 1.66894 10.5417 1.66894 10.8571C1.66894 11.1726 1.80501 11.442 2.07715 11.6652C2.34929 11.8884 2.67767 12 3.0623 12C3.44692 12 3.77531 11.8884 4.04745 11.6652C4.31959 11.442 4.45566 11.1726 4.45566 10.8571ZM15.6025 10.8571C15.6025 10.5417 15.4665 10.2723 15.1943 10.0491C14.9222 9.82589 14.5938 9.71429 14.2092 9.71429C13.8245 9.71429 13.4962 9.82589 13.224 10.0491C12.9519 10.2723 12.8158 10.5417 12.8158 10.8571C12.8158 11.1726 12.9519 11.442 13.224 11.6652C13.4962 11.8884 13.8245 12 14.2092 12C14.5938 12 14.9222 11.8884 15.1943 11.6652C15.4665 11.442 15.6025 11.1726 15.6025 10.8571ZM15.1018 7.32143L14.318 3.89286C14.2817 3.75595 14.2001 3.64435 14.0731 3.55804C13.9461 3.47173 13.7991 3.42857 13.6322 3.42857H3.63924C3.47232 3.42857 3.32537 3.47173 3.19837 3.55804C3.07137 3.64435 2.98973 3.75595 2.95344 3.89286L2.16968 7.32143C2.13339 7.5 2.18419 7.65774 2.32208 7.79464C2.45996 7.93155 2.63776 8 2.85547 8H14.416C14.6337 8 14.8115 7.93155 14.9494 7.79464C15.0873 7.65774 15.1381 7.5 15.1018 7.32143ZM12.6416 1.85714C12.6416 1.7381 12.5908 1.6369 12.4892 1.55357C12.3876 1.47024 12.2643 1.42857 12.1191 1.42857H5.15234C5.0072 1.42857 4.88383 1.47024 4.78223 1.55357C4.68063 1.6369 4.62983 1.7381 4.62983 1.85714C4.62983 1.97619 4.68063 2.07738 4.78223 2.16071C4.88383 2.24405 5.0072 2.28571 5.15234 2.28571H12.1191C12.2643 2.28571 12.3876 2.24405 12.4892 2.16071C12.5908 2.07738 12.6416 1.97619 12.6416 1.85714ZM16.9959 8.33036V13.7143H15.6025V14.8571C15.6025 15.1726 15.4665 15.442 15.1943 15.6652C14.9222 15.8884 14.5938 16 14.2092 16C13.8245 16 13.4962 15.8884 13.224 15.6652C12.9519 15.442 12.8158 15.1726 12.8158 14.8571V13.7143H4.45566V14.8571C4.45566 15.1726 4.31959 15.442 4.04745 15.6652C3.77531 15.8884 3.44692 16 3.0623 16C2.67767 16 2.34929 15.8884 2.07715 15.6652C1.80501 15.442 1.66894 15.1726 1.66894 14.8571V13.7143H0.275581V8.33036C0.275581 7.66369 0.366295 7 0.547722 6.33929L1.66894 2.28571C1.73425 1.82143 2.08804 1.41369 2.73029 1.0625C3.37254 0.71131 4.2071 0.446429 5.23398 0.267857C6.26086 0.0892857 7.39477 0 8.63573 0C9.87669 0 11.0106 0.0892857 12.0375 0.267857C13.0644 0.446429 13.8989 0.71131 14.5412 1.0625C15.1834 1.41369 15.5372 1.82143 15.6025 2.28571L16.7455 6.33929C16.9124 6.94643 16.9959 7.61012 16.9959 8.33036Z" fill="#1D2E5B"/>
</g>
<defs>
<clipPath id="clip0_22763_1028">
<rect width="16.7273" height="16" fill="white" transform="translate(0.272728)"/>
</clipPath>
</defs>
</svg>
